<svg width="512" height="512" viewBox="0 0 512 512" fill="none" xmlns="http://www.w3.org/2000/svg">
<path opacity="0.5" d="M320.771 320.771C323.998 317.545 328.374 315.733 332.937 315.733C337.5 315.733 341.876 317.545 345.103 320.771L413.937 389.605C417.071 392.85 418.806 397.197 418.767 401.709C418.727 406.221 416.918 410.537 413.727 413.728C410.537 416.918 406.22 418.728 401.708 418.767C397.197 418.806 392.85 417.072 389.604 413.937L320.771 345.104C317.545 341.877 315.732 337.501 315.732 332.938C315.732 328.375 317.545 323.998 320.771 320.771Z" fill="#2B84D3"/>
<path d="M96.3232 229.688C96.3232 194.317 110.374 160.395 135.385 135.385C160.396 110.374 194.317 96.323 229.688 96.323C265.058 96.323 298.98 110.374 323.991 135.385C349.002 160.395 363.052 194.317 363.052 229.688C363.052 265.058 349.002 298.98 323.991 323.991C298.98 349.001 265.058 363.052 229.688 363.052C194.317 363.052 160.396 349.001 135.385 323.991C110.374 298.98 96.3232 265.058 96.3232 229.688ZM229.688 122.135C201.163 122.135 173.807 133.467 153.637 153.637C133.467 173.807 122.136 201.163 122.136 229.688C122.136 258.212 133.467 285.568 153.637 305.738C173.807 325.908 201.163 337.24 229.688 337.24C258.212 337.24 285.569 325.908 305.739 305.738C325.909 285.568 337.24 258.212 337.24 229.688C337.24 201.163 325.909 173.807 305.739 153.637C285.569 133.467 258.212 122.135 229.688 122.135Z" fill="white"/>
<path d="M195 195H182.5C179.185 195 176.005 196.317 173.661 198.661C171.317 201.005 170 204.185 170 207.5V257.5H182.5V232.5H195V257.5H207.5V207.5C207.5 204.185 206.183 201.005 203.839 198.661C201.495 196.317 198.315 195 195 195ZM195 220H182.5V207.5H195M238.75 195H213.75V257.5H226.25V232.5H238.75C242.065 232.5 245.245 231.183 247.589 228.839C249.933 226.495 251.25 223.315 251.25 220V207.5C251.25 204.185 249.933 201.005 247.589 198.661C245.245 196.317 242.065 195 238.75 195ZM238.75 220H226.25V207.5H238.75M276.25 207.5V245H282.5V257.5H257.5V245H263.75V207.5H257.5V195H282.5V207.5H276.25Z" fill="#38C6AB"/>
</svg>
