<?xml version="1.0" encoding="UTF-8"?>
<svg version="1.1" xmlns="http://www.w3.org/2000/svg" width="2048" height="2048">
<path d="M0 0 C2.70376324 0.2646858 5.40837583 0.51922016 8.11315918 0.77325439 C99.86582167 9.51341655 190.2487589 30.28818013 365.58679199 102.25323486 C366.7098877 102.80189209 367.8329834 103.35054932 368.9901123 103.91583252 C384.23941185 111.37230695 399.19987506 119.19318254 413.89147949 127.70050049 C416.53011187 129.22058219 419.18059489 130.71721942 421.83679199 132.20635986 C453.51114764 150.00194646 484.42952901 170.04452452 513.57067871 191.75811768 C515.80567373 193.41555404 518.05643675 195.0500683 520.30944824 196.68292236 C529.36237659 203.26317712 538.18068394 210.05015856 546.81726074 217.16729736 C550.39891645 220.11603161 554.04692661 222.97160658 557.71179199 225.81573486 C564.26625812 230.92445822 570.56754017 236.29825065 576.84118652 241.74591064 C578.56867174 243.23758809 580.30769414 244.71444012 582.05163574 246.18682861 C588.90200223 251.98092025 595.5654829 257.93105887 602.08654785 264.09454346 C605.40377898 267.22922182 608.76172006 270.30408459 612.17492676 273.33428955 C617.60313616 278.21472611 622.7874789 283.3093703 627.94226074 288.47589111 C628.89754493 289.43049882 629.85297726 290.38495829 630.80854797 291.33927917 C632.79248707 293.32175889 634.77464487 295.30599711 636.75549316 297.29156494 C639.27333029 299.815114 641.79565394 302.33412344 644.31933117 304.85183048 C646.28674025 306.81559932 648.2517287 308.78177652 650.21602821 310.74865532 C651.58991656 312.12351865 652.96578946 313.49639794 654.34172058 314.86921692 C658.75795881 319.30186898 663.04537492 323.78611276 667.11338806 328.54171753 C669.48123384 331.29222539 671.97914787 333.91928053 674.46179199 336.56573486 C679.00027723 341.43909036 683.28027997 346.45627464 687.45007324 351.65167236 C689.54561693 354.20310215 691.72642354 356.6365026 693.96179199 359.06573486 C697.9443448 363.44103077 701.60497269 368.00052753 705.22790527 372.67193604 C708.17454745 376.46835702 711.17473148 380.21132923 714.22839355 383.92218018 C719.67202109 390.54245094 724.9438832 397.27146842 730.08679199 404.12823486 C730.9206543 405.23932617 730.9206543 405.23932617 731.7713623 406.37286377 C733.72237643 408.99063116 735.65671639 411.61998141 737.58679199 414.25323486 C738.04505371 414.87745331 738.50331543 415.50167175 738.97546387 416.14480591 C747.48290161 427.75511122 755.6302989 439.5722882 763.58679199 451.56573486 C764.15361694 452.41829865 764.72044189 453.27086243 765.30444336 454.14926147 C773.64644044 466.70232616 781.89986097 479.28487621 789.58679199 492.25323486 C790.43539795 493.68312744 790.43539795 493.68312744 791.30114746 495.14190674 C795.44722934 502.14993525 799.5378848 509.18865044 803.58679199 516.25323486 C804.03619141 517.03730713 804.48559082 517.82137939 804.9486084 518.62921143 C812.9216363 532.60922992 820.26012362 546.92705365 827.58679199 561.25323486 C828.14302246 562.33701416 828.69925293 563.42079346 829.27233887 564.53741455 C869.11133392 642.3442509 897.23244148 726.31890633 928.58679199 893.25323486 C928.68627136 894.03704529 928.78575073 894.82085571 928.88824463 895.62841797 C930.23878303 906.36408243 931.37834851 917.11220105 932.36676025 927.88702393 C932.58427111 930.22612537 932.81339005 932.56386089 933.04431152 934.90167236 C938.59005149 992.20344367 938.44880445 1052.37688492 932.84002686 1109.66644287 C932.57534105 1112.37020611 932.32080669 1115.0748187 932.06677246 1117.77960205 C923.32661031 1209.53226454 902.55184672 1299.91520177 830.58679199 1475.25323486 C830.03813477 1476.37633057 829.48947754 1477.49942627 828.92419434 1478.65655518 C821.46771991 1493.90585472 813.64684432 1508.86631793 805.13952637 1523.55792236 C803.61944467 1526.19655474 802.12280743 1528.84703776 800.63366699 1531.50323486 C782.83808039 1563.17759051 762.79550234 1594.09597188 741.08190918 1623.23712158 C739.42447281 1625.47211661 737.78995856 1627.72287962 736.15710449 1629.97589111 C729.57684973 1639.02881946 722.7898683 1647.84712681 715.67272949 1656.48370361 C712.72399525 1660.06535932 709.86842028 1663.71336949 707.02429199 1667.37823486 C701.91556864 1673.93270099 696.54177621 1680.23398305 691.09411621 1686.50762939 C689.60243877 1688.23511461 688.12558673 1689.97413702 686.65319824 1691.71807861 C680.85910661 1698.5684451 674.90896798 1705.23192577 668.7454834 1711.75299072 C665.61080503 1715.07022185 662.53594227 1718.42816293 659.5057373 1721.84136963 C654.62530074 1727.26957903 649.53065656 1732.45392177 644.36413574 1737.60870361 C643.40952804 1738.5639878 642.45506857 1739.51942013 641.50074768 1740.47499084 C639.51826796 1742.45892994 637.53402974 1744.44108774 635.54846191 1746.42193604 C633.02491286 1748.93977316 630.50590341 1751.46209681 627.98819637 1753.98577404 C626.02442754 1755.95318312 624.05825034 1757.91817157 622.09137154 1759.88247108 C620.7165082 1761.25635943 619.34362891 1762.63223233 617.97080994 1764.00816345 C613.53815788 1768.42440168 609.05391409 1772.71181779 604.29830933 1776.77983093 C601.54780146 1779.14767671 598.92074633 1781.64559075 596.27429199 1784.12823486 C591.4009365 1788.6667201 586.38375222 1792.94672284 581.18835449 1797.11651611 C578.6369247 1799.2120598 576.20352426 1801.39286641 573.77429199 1803.62823486 C569.39899609 1807.61078767 564.83949933 1811.27141556 560.16809082 1814.89434814 C556.37166984 1817.84099032 552.62869763 1820.84117435 548.91784668 1823.89483643 C542.29757592 1829.33846396 535.56855844 1834.61032607 528.71179199 1839.75323486 C527.97106445 1840.30914307 527.23033691 1840.86505127 526.46716309 1841.43780518 C523.8493957 1843.3888193 521.22004544 1845.32315926 518.58679199 1847.25323486 C517.65046432 1847.94062744 517.65046432 1847.94062744 516.69522095 1848.64190674 C505.08491564 1857.14934448 493.26773866 1865.29674177 481.27429199 1873.25323486 C480.42172821 1873.82005981 479.56916443 1874.38688477 478.69076538 1874.97088623 C466.13770069 1883.31288331 453.55515064 1891.56630384 440.58679199 1899.25323486 C439.63353027 1899.81897217 438.68026855 1900.38470947 437.69812012 1900.96759033 C430.6900916 1905.11367221 423.65137642 1909.20432767 416.58679199 1913.25323486 C415.80271973 1913.70263428 415.01864746 1914.15203369 414.21081543 1914.61505127 C400.23079694 1922.58807917 385.9129732 1929.92656649 371.58679199 1937.25323486 C370.5030127 1937.80946533 369.4192334 1938.3656958 368.3026123 1938.93878174 C290.49577595 1978.77777679 206.52112053 2006.89888435 39.58679199 2038.25323486 C38.80298157 2038.35271423 38.01917114 2038.4521936 37.21160889 2038.5546875 C26.47594443 2039.9052259 15.72782581 2041.04479138 4.95300293 2042.03320312 C2.61390148 2042.25071398 0.27616596 2042.47983292 -2.06164551 2042.71075439 C-59.36341682 2048.25649436 -119.53685806 2048.11524732 -176.82641602 2042.50646973 C-179.53017926 2042.24178392 -182.23479185 2041.98724957 -184.9395752 2041.73321533 C-276.69223769 2032.99305318 -367.07517491 2012.21828959 -542.41320801 1940.25323486 C-543.53630371 1939.70457764 -544.65939941 1939.15592041 -545.81652832 1938.59063721 C-561.06582787 1931.13416278 -576.02629108 1923.31328719 -590.71789551 1914.80596924 C-593.35652789 1913.28588754 -596.00701091 1911.7892503 -598.66320801 1910.30010986 C-630.33756365 1892.50452327 -661.25594503 1872.46194521 -690.39709473 1850.74835205 C-692.63208975 1849.09091568 -694.88285277 1847.45640143 -697.13586426 1845.82354736 C-706.18879261 1839.2432926 -715.00709996 1832.45631117 -723.64367676 1825.33917236 C-727.22533247 1822.39043812 -730.87334263 1819.53486315 -734.53820801 1816.69073486 C-741.09267414 1811.58201151 -747.39395619 1806.20821908 -753.66760254 1800.76055908 C-755.39508775 1799.26888164 -757.13411016 1797.7920296 -758.87805176 1796.31964111 C-765.72841825 1790.52554948 -772.39189891 1784.57541085 -778.91296387 1778.41192627 C-782.230195 1775.2772479 -785.58813607 1772.20238514 -789.00134277 1769.17218018 C-794.42955218 1764.29174361 -799.61389492 1759.19709943 -804.76867676 1754.03057861 C-805.72396094 1753.07597091 -806.67939328 1752.12151144 -807.63496399 1751.16719055 C-809.61890308 1749.18471083 -811.60106088 1747.20047261 -813.58190918 1745.21490479 C-816.09974631 1742.69135573 -818.62206995 1740.17234629 -821.14574718 1737.65463924 C-823.11315627 1735.69087041 -825.07814471 1733.72469321 -827.04244423 1731.75781441 C-828.41633258 1730.38295107 -829.79220548 1729.01007178 -831.1681366 1727.63725281 C-835.58437482 1723.20460075 -839.87179093 1718.72035696 -843.93980408 1713.9647522 C-846.30764986 1711.21424433 -848.80556389 1708.5871892 -851.28820801 1705.94073486 C-855.82669324 1701.06737937 -860.10669598 1696.05019509 -864.27648926 1690.85479736 C-866.37203294 1688.30336757 -868.55283955 1685.86996713 -870.78820801 1683.44073486 C-874.77076081 1679.06543896 -878.43138871 1674.5059422 -882.05432129 1669.83453369 C-885.00096346 1666.03811271 -888.00114749 1662.2951405 -891.05480957 1658.58428955 C-896.4984371 1651.96401879 -901.77029922 1645.23500131 -906.91320801 1638.37823486 C-907.46911621 1637.63750732 -908.02502441 1636.89677979 -908.59777832 1636.13360596 C-910.54879244 1633.51583857 -912.48313241 1630.88648832 -914.41320801 1628.25323486 C-915.10060059 1627.3169072 -915.10060059 1627.3169072 -915.80187988 1626.36166382 C-924.30931762 1614.75135851 -932.45671491 1602.93418153 -940.41320801 1590.94073486 C-940.98003296 1590.08817108 -941.54685791 1589.2356073 -942.13085938 1588.35720825 C-950.47285646 1575.80414356 -958.72627699 1563.22159351 -966.41320801 1550.25323486 C-966.97894531 1549.29997314 -967.54468262 1548.34671143 -968.12756348 1547.36456299 C-972.27364535 1540.35653448 -976.36430082 1533.31781929 -980.41320801 1526.25323486 C-980.86260742 1525.4691626 -981.31200684 1524.68509033 -981.77502441 1523.8772583 C-989.09185503 1511.0478253 -995.87721541 1497.93644418 -1002.60314941 1484.78985596 C-1003.78731907 1482.47614113 -1004.97437909 1480.16390276 -1006.16467285 1477.85333252 C-1044.0877156 1404.11705764 -1071.36363066 1324.3005581 -1108.66320801 1119.56573486 C-1108.74043091 1118.77617401 -1108.81765381 1117.98661316 -1108.8972168 1117.17312622 C-1109.47236119 1111.20486696 -1109.95946185 1105.23186543 -1110.41320801 1099.25323486 C-1110.50041107 1098.13038086 -1110.58761414 1097.00752686 -1110.67745972 1095.85064697 C-1112.44701119 1072.412312 -1112.77688324 1049.03529588 -1112.73126602 1025.53697205 C-1112.72562262 1022.5835464 -1112.72280391 1019.63012651 -1112.72018433 1016.67669678 C-1112.68406617 988.65741824 -1112.39884544 960.74951917 -1109.66644287 932.84002686 C-1109.40175707 930.13626361 -1109.14722271 927.43165102 -1108.89318848 924.72686768 C-1100.15302632 832.97420519 -1079.37826274 742.59126796 -1007.41320801 567.25323486 C-1006.86455078 566.13013916 -1006.31589355 565.00704346 -1005.75061035 563.84991455 C-998.29413592 548.600615 -990.47326033 533.64015179 -981.96594238 518.94854736 C-980.44586069 516.30991498 -978.94922345 513.65943196 -977.46008301 511.00323486 C-959.66449641 479.32887922 -939.62191835 448.41049784 -917.9083252 419.26934814 C-916.25088883 417.03435312 -914.61637457 414.78359011 -912.98352051 412.53057861 C-906.40326575 403.47765026 -899.61628431 394.65934291 -892.49914551 386.02276611 C-889.55041126 382.44111041 -886.69483629 378.79310024 -883.85070801 375.12823486 C-878.74198465 368.57376873 -873.36819222 362.27248668 -867.92053223 355.99884033 C-866.42885478 354.27135512 -864.95200275 352.53233271 -863.47961426 350.78839111 C-857.68552262 343.93802462 -851.735384 337.27454396 -845.57189941 330.753479 C-842.43722105 327.43624788 -839.36235828 324.0783068 -836.33215332 320.6651001 C-831.45171676 315.23689069 -826.35707257 310.05254796 -821.19055176 304.89776611 C-820.23594406 303.94248193 -819.28148459 302.98704959 -818.3271637 302.03147888 C-816.34468398 300.04753979 -814.36044576 298.06538199 -812.37487793 296.08453369 C-809.85132887 293.56669656 -807.33231943 291.04437292 -804.81461239 288.52069569 C-802.85084355 286.55328661 -800.88466636 284.58829816 -798.91778755 282.62399864 C-797.54292422 281.2501103 -796.17004493 279.87423739 -794.79722595 278.49830627 C-790.36457389 274.08206805 -785.88033011 269.79465194 -781.12472534 265.72663879 C-778.37421748 263.35879301 -775.74716234 260.86087898 -773.10070801 258.37823486 C-768.22735251 253.83974963 -763.21016823 249.55974689 -758.01477051 245.38995361 C-755.46334072 243.29440993 -753.02994028 241.11360332 -750.60070801 238.87823486 C-746.22541211 234.89568206 -741.66591534 231.23505416 -736.99450684 227.61212158 C-733.19808586 224.66547941 -729.45511364 221.66529538 -725.7442627 218.6116333 C-719.12399193 213.16800577 -712.39497445 207.89614365 -705.53820801 202.75323486 C-704.4271167 201.91937256 -704.4271167 201.91937256 -703.2935791 201.06866455 C-700.67581172 199.11765043 -698.04646146 197.18331046 -695.41320801 195.25323486 C-694.78898956 194.79497314 -694.16477112 194.33671143 -693.52163696 193.86456299 C-681.91133166 185.35712525 -670.09415467 177.20972796 -658.10070801 169.25323486 C-657.24814423 168.68640991 -656.39558044 168.11958496 -655.5171814 167.5355835 C-642.96411671 159.19358641 -630.38156666 150.94016588 -617.41320801 143.25323486 C-615.98331543 142.40462891 -615.98331543 142.40462891 -614.52453613 141.53887939 C-607.51650762 137.39279752 -600.47779243 133.30214205 -593.41320801 129.25323486 C-592.23709961 128.57913574 -592.23709961 128.57913574 -591.03723145 127.89141846 C-577.05721295 119.91839055 -562.73938922 112.57990323 -548.41320801 105.25323486 C-547.32942871 104.69700439 -546.24564941 104.14077393 -545.12902832 103.56768799 C-467.32219197 63.72869294 -383.34753655 35.60758538 -216.41320801 4.25323486 C-215.62939758 4.15375549 -214.84558716 4.05427612 -214.0380249 3.95178223 C-203.30236044 2.60124383 -192.55424182 1.46167835 -181.77941895 0.4732666 C-179.4403175 0.25575575 -177.10258198 0.02663681 -174.76477051 -0.20428467 C-117.4629992 -5.75002464 -57.28955795 -5.60877759 0 0 Z " fill="#192636" transform="translate(1112.4132080078125,2.74676513671875)"/>
<path d="M0 0 C1.0832959 0.1124707 2.1665918 0.22494141 3.28271484 0.34082031 C9.86398875 1.0364099 16.43314292 1.80689222 22.99951172 2.63085938 C25.74904168 2.96912539 28.50001399 3.27791033 31.25390625 3.578125 C113.67031177 13.05861227 197.49999071 49.12669786 264 98 C264.66402832 98.48533203 265.32805664 98.97066406 266.01220703 99.47070312 C290.58342469 117.47654836 313.42608704 137.38879436 335 158.875 C335.78914795 159.6594751 336.5782959 160.4439502 337.39135742 161.25219727 C342.13344061 166.00738988 346.63078698 170.90214877 351 176 C352.04540885 177.19139227 353.09225551 178.38152463 354.140625 179.5703125 C360.89145381 187.2709959 367.41461405 195.09713063 373.640625 203.22851562 C374.99070178 204.98788293 376.35440336 206.73606223 377.71875 208.484375 C390.99619245 225.67536323 403.28954077 244.10009568 414 263 C414.37995117 263.66660645 414.75990234 264.33321289 415.15136719 265.02001953 C417.71340746 269.52982777 420.22529189 274.06503782 422.70410156 278.62109375 C423.56087767 280.1938945 424.42213656 281.7642624 425.28808594 283.33203125 C438.62445253 307.53618191 449.16527032 333.01546522 458.03369141 359.15820312 C458.84168101 361.53440297 459.66871291 363.90170827 460.51171875 366.265625 C464.03090743 376.34582475 466.62736122 386.65645475 469.23388672 397.00146484 C469.96645749 399.86871602 470.73020647 402.72564257 471.50390625 405.58203125 C476.20028542 423.1746952 479.39610148 440.99331581 482 459 C482.16302612 460.12510986 482.16302612 460.12510986 482.3293457 461.27294922 C485.55514854 483.92470849 486.36525887 506.44464644 486.375 529.3125 C486.37699402 530.5406543 486.37898804 531.76880859 486.38104248 533.03417969 C486.37667266 556.76152005 484.92090521 580.34177112 481.875 603.875 C481.77151245 604.68163086 481.6680249 605.48826172 481.56140137 606.31933594 C470.03005117 694.79358811 433.31626742 779.14564841 365.5 870.1015625 C363.16203709 872.81213825 360.91936138 875.57696791 358.6875 878.375 C353.37462605 884.90008049 347.58719682 890.96245742 341.80957031 897.07275391 C340.02200524 898.97656377 338.25397469 900.89655221 336.4921875 902.82421875 C331.47511321 908.30779671 326.53329089 913.67017426 320.8125 918.4375 C318.82171406 920.15369477 317.01610701 921.98740567 315.1875 923.875 C311.30139077 927.82194851 307.09834043 931.25558955 302.78125 934.71875 C300.14479995 936.88123151 297.63131294 939.12648417 295.125 941.4375 C289.36390414 946.66582994 283.24115008 951.36783249 277 956 C276.35595215 956.47920898 275.7119043 956.95841797 275.04833984 957.45214844 C229.58438583 991.13318846 180.96227211 1016.90900699 127.75195312 1036.00585938 C125.51897074 1036.81252228 123.29595805 1037.63730275 121.078125 1038.484375 C68.68773513 1058.16271656 9.57104478 1065.45598175 -46 1065.375 C-47.00622972 1065.37486216 -47.00622972 1065.37486216 -48.03278732 1065.37472153 C-71.86190853 1065.37051994 -95.38796972 1064.35834627 -119 1061 C-119.68096741 1060.90334045 -120.36193481 1060.80668091 -121.0635376 1060.70709229 C-138.22048655 1058.23533285 -155.15903212 1054.65165867 -172.02832031 1050.69238281 C-174.63736841 1050.0844909 -177.25029838 1049.502577 -179.8671875 1048.9296875 C-256.76840787 1031.53819335 -329.90790862 991.24792285 -390 941 C-390.59087402 940.50822266 -391.18174805 940.01644531 -391.79052734 939.50976562 C-404.98101857 928.49870078 -417.39028517 916.68209718 -429.5625 904.5625 C-430.30016602 903.82950684 -431.03783203 903.09651367 -431.79785156 902.34130859 C-435.85063822 898.27652052 -439.72747006 894.11467868 -443.47436523 889.76635742 C-445.35264364 887.5917144 -447.30043776 885.48574652 -449.25 883.375 C-453.79483281 878.33800255 -457.96101191 873.05837606 -462.11328125 867.69921875 C-464.03850512 865.21736691 -465.99335881 862.76460604 -467.98046875 860.33203125 C-475.1633806 851.53156678 -481.71459721 842.45900292 -488 833 C-488.57121582 832.14905762 -489.14243164 831.29811523 -489.73095703 830.42138672 C-499.18860459 816.3141694 -507.92287148 801.93992245 -516 787 C-516.5657373 785.9589209 -517.13147461 784.9178418 -517.71435547 783.84521484 C-546.35854856 730.83148508 -566.20074481 672.85436849 -574.63037109 613.14355469 C-574.97491811 610.82454673 -574.97491811 610.82454673 -576 608 C-576.7997057 602.68430917 -577.38129958 597.33935236 -578 592 C-578.12981514 590.88261696 -578.12981514 590.88261696 -578.26225281 589.74266052 C-579.76144967 576.57646067 -580.44744128 563.49525793 -580.6875 550.25 C-580.70712799 549.27842957 -580.72675598 548.30685913 -580.74697876 547.30584717 C-581.09152435 529.83590492 -580.9585651 512.45152339 -580 495 C-579.95004883 494.03819824 -579.90009766 493.07639648 -579.84863281 492.08544922 C-579.46872675 485.35965998 -578.80353557 478.68773046 -578 472 C-577.91812439 471.31715942 -577.83624878 470.63431885 -577.75189209 469.93078613 C-570.81966808 412.75208469 -555.12298852 358.32263882 -531 306 C-530.57219238 305.05930664 -530.14438477 304.11861328 -529.70361328 303.14941406 C-523.25049271 288.97353872 -515.88982595 275.4250495 -508 262 C-507.4323291 261.03239746 -506.8646582 260.06479492 -506.27978516 259.06787109 C-489.32647652 230.3272013 -469.57602784 202.77634726 -446.98046875 178.1640625 C-445.09159671 176.10008792 -443.2605374 173.99709746 -441.4375 171.875 C-438.4306373 168.41676068 -435.22817411 165.2069987 -431.9609375 161.99609375 C-430.08338879 160.08488381 -428.35190586 158.10965365 -426.625 156.0625 C-423.20776457 152.08480683 -419.40194845 148.67806912 -415.46875 145.21875 C-413.24065875 143.21628824 -411.14540874 141.15120083 -409.0625 139 C-405.19472242 135.06983892 -400.99708637 131.65080052 -396.69921875 128.203125 C-394.34785812 126.28392472 -392.10686141 124.3048666 -389.875 122.25 C-344.53876616 81.58428403 -287.10623176 50.37490959 -230 30 C-228.78103027 29.56091309 -227.56206055 29.12182617 -226.30615234 28.66943359 C-154.41110862 2.91498226 -76.10883352 -8.04706828 0 0 Z " fill="#192636" transform="translate(966,387)"/>
<path d="M0 0 C1.0832959 0.1124707 2.1665918 0.22494141 3.28271484 0.34082031 C9.86398875 1.0364099 16.43314292 1.80689222 22.99951172 2.63085938 C25.74904168 2.96912539 28.50001399 3.27791033 31.25390625 3.578125 C113.67031177 13.05861227 197.49999071 49.12669786 264 98 C264.66402832 98.48533203 265.32805664 98.97066406 266.01220703 99.47070312 C290.58342469 117.47654836 313.42608704 137.38879436 335 158.875 C335.78914795 159.6594751 336.5782959 160.4439502 337.39135742 161.25219727 C342.13344061 166.00738988 346.63078698 170.90214877 351 176 C352.04540885 177.19139227 353.09225551 178.38152463 354.140625 179.5703125 C360.89145381 187.2709959 367.41461405 195.09713063 373.640625 203.22851562 C374.99070178 204.98788293 376.35440336 206.73606223 377.71875 208.484375 C390.99619245 225.67536323 403.28954077 244.10009568 414 263 C414.37995117 263.66660645 414.75990234 264.33321289 415.15136719 265.02001953 C417.71340746 269.52982777 420.22529189 274.06503782 422.70410156 278.62109375 C423.56087767 280.1938945 424.42213656 281.7642624 425.28808594 283.33203125 C438.62445253 307.53618191 449.16527032 333.01546522 458.03369141 359.15820312 C458.84168101 361.53440297 459.66871291 363.90170827 460.51171875 366.265625 C464.03090743 376.34582475 466.62736122 386.65645475 469.23388672 397.00146484 C469.96645749 399.86871602 470.73020647 402.72564257 471.50390625 405.58203125 C476.20028542 423.1746952 479.39610148 440.99331581 482 459 C482.16302612 460.12510986 482.16302612 460.12510986 482.3293457 461.27294922 C485.55514854 483.92470849 486.36525887 506.44464644 486.375 529.3125 C486.37699402 530.5406543 486.37898804 531.76880859 486.38104248 533.03417969 C486.37667266 556.76152005 484.92090521 580.34177112 481.875 603.875 C481.77151245 604.68163086 481.6680249 605.48826172 481.56140137 606.31933594 C470.03005117 694.79358811 433.31626742 779.14564841 365.5 870.1015625 C363.16203709 872.81213825 360.91936138 875.57696791 358.6875 878.375 C353.37462605 884.90008049 347.58719682 890.96245742 341.80957031 897.07275391 C340.02200524 898.97656377 338.25397469 900.89655221 336.4921875 902.82421875 C331.47511321 908.30779671 326.53329089 913.67017426 320.8125 918.4375 C318.82171406 920.15369477 317.01610701 921.98740567 315.1875 923.875 C311.30139077 927.82194851 307.09834043 931.25558955 302.78125 934.71875 C300.14479995 936.88123151 297.63131294 939.12648417 295.125 941.4375 C289.36390414 946.66582994 283.24115008 951.36783249 277 956 C276.35595215 956.47920898 275.7119043 956.95841797 275.04833984 957.45214844 C229.58438583 991.13318846 180.96227211 1016.90900699 127.75195312 1036.00585938 C125.51897074 1036.81252228 123.29595805 1037.63730275 121.078125 1038.484375 C68.68773513 1058.16271656 9.57104478 1065.45598175 -46 1065.375 C-47.00622972 1065.37486216 -47.00622972 1065.37486216 -48.03278732 1065.37472153 C-71.86190853 1065.37051994 -95.38796972 1064.35834627 -119 1061 C-119.68096741 1060.90334045 -120.36193481 1060.80668091 -121.0635376 1060.70709229 C-138.22048655 1058.23533285 -155.15903212 1054.65165867 -172.02832031 1050.69238281 C-174.63736841 1050.0844909 -177.25029838 1049.502577 -179.8671875 1048.9296875 C-256.76840787 1031.53819335 -329.90790862 991.24792285 -390 941 C-390.59087402 940.50822266 -391.18174805 940.01644531 -391.79052734 939.50976562 C-404.98101857 928.49870078 -417.39028517 916.68209718 -429.5625 904.5625 C-430.30016602 903.82950684 -431.03783203 903.09651367 -431.79785156 902.34130859 C-435.85063822 898.27652052 -439.72747006 894.11467868 -443.47436523 889.76635742 C-445.35264364 887.5917144 -447.30043776 885.48574652 -449.25 883.375 C-453.79483281 878.33800255 -457.96101191 873.05837606 -462.11328125 867.69921875 C-464.03850512 865.21736691 -465.99335881 862.76460604 -467.98046875 860.33203125 C-475.1633806 851.53156678 -481.71459721 842.45900292 -488 833 C-488.57121582 832.14905762 -489.14243164 831.29811523 -489.73095703 830.42138672 C-499.18860459 816.3141694 -507.92287148 801.93992245 -516 787 C-516.5657373 785.9589209 -517.13147461 784.9178418 -517.71435547 783.84521484 C-546.35854856 730.83148508 -566.20074481 672.85436849 -574.63037109 613.14355469 C-574.97491811 610.82454673 -574.97491811 610.82454673 -576 608 C-576.7997057 602.68430917 -577.38129958 597.33935236 -578 592 C-578.12981514 590.88261696 -578.12981514 590.88261696 -578.26225281 589.74266052 C-579.76144967 576.57646067 -580.44744128 563.49525793 -580.6875 550.25 C-580.70712799 549.27842957 -580.72675598 548.30685913 -580.74697876 547.30584717 C-581.09152435 529.83590492 -580.9585651 512.45152339 -580 495 C-579.95004883 494.03819824 -579.90009766 493.07639648 -579.84863281 492.08544922 C-579.46872675 485.35965998 -578.80353557 478.68773046 -578 472 C-577.91812439 471.31715942 -577.83624878 470.63431885 -577.75189209 469.93078613 C-570.81966808 412.75208469 -555.12298852 358.32263882 -531 306 C-530.57219238 305.05930664 -530.14438477 304.11861328 -529.70361328 303.14941406 C-523.25049271 288.97353872 -515.88982595 275.4250495 -508 262 C-507.4323291 261.03239746 -506.8646582 260.06479492 -506.27978516 259.06787109 C-489.32647652 230.3272013 -469.57602784 202.77634726 -446.98046875 178.1640625 C-445.09159671 176.10008792 -443.2605374 173.99709746 -441.4375 171.875 C-438.4306373 168.41676068 -435.22817411 165.2069987 -431.9609375 161.99609375 C-430.08338879 160.08488381 -428.35190586 158.10965365 -426.625 156.0625 C-423.20776457 152.08480683 -419.40194845 148.67806912 -415.46875 145.21875 C-413.24065875 143.21628824 -411.14540874 141.15120083 -409.0625 139 C-405.19472242 135.06983892 -400.99708637 131.65080052 -396.69921875 128.203125 C-394.34785812 126.28392472 -392.10686141 124.3048666 -389.875 122.25 C-344.53876616 81.58428403 -287.10623176 50.37490959 -230 30 C-228.78103027 29.56091309 -227.56206055 29.12182617 -226.30615234 28.66943359 C-154.41110862 2.91498226 -76.10883352 -8.04706828 0 0 Z M-354.15093994 229.97570801 C-355.15816232 230.97488861 -356.16686031 231.97258441 -357.17718506 232.96862793 C-363.9221657 239.62834305 -370.08307563 246.5853003 -376 254 C-376.92334818 255.08985359 -377.85296 256.17448326 -378.79296875 257.25 C-394.63872945 275.44806775 -407.7945338 295.57828231 -420.01074219 316.33447266 C-420.89940182 317.83063159 -421.81154026 319.31278572 -422.7265625 320.79296875 C-460.57318824 382.94394419 -477.27044051 458.80298407 -477.1875 530.875 C-477.18623108 532.00849884 -477.18496216 533.14199768 -477.18365479 534.30984497 C-476.9734203 632.80296192 -443.0297289 729.40545425 -364 823 C-363.12472656 823.96808594 -362.24945312 824.93617188 -361.34765625 825.93359375 C-353.63628621 834.44100252 -345.77897929 842.76930853 -337.0390625 850.23828125 C-334.7730777 852.19605739 -332.57856506 854.22228948 -330.375 856.25 C-324.17439706 861.83621393 -317.62170457 866.92805608 -311 872 C-310.35724121 872.49435547 -309.71448242 872.98871094 -309.05224609 873.49804688 C-279.80130794 895.93989229 -247.79347368 914.30130823 -214 929 C-213.17918945 929.3604541 -212.35837891 929.7209082 -211.51269531 930.09228516 C-177.20235508 945.00765343 -139.88608793 953.63777182 -103 959 C-101.30278809 959.2477417 -101.30278809 959.2477417 -99.57128906 959.50048828 C-25.23851211 969.80140478 52.23002608 956.9022242 121 928 C121.9089502 927.61875977 122.81790039 927.23751953 123.75439453 926.84472656 C165.27083851 909.23168972 204.10838779 884.78707806 237.41796875 854.3359375 C238.81832835 853.06904636 240.22470407 851.80816092 241.66088867 850.58203125 C247.49030414 845.5920456 252.94097723 840.24516967 258.36303711 834.82226562 C259.92608734 833.26139673 261.49697365 831.70872112 263.06835938 830.15625 C268.7085166 824.54731279 273.95594481 818.81161474 278.91723633 812.5793457 C280.90999269 810.11146726 282.9798103 807.75241113 285.109375 805.40234375 C289.08428918 800.97430508 292.6994633 796.33475232 296.25 791.5625 C296.89404785 790.69923096 297.5380957 789.83596191 298.20166016 788.9465332 C307.92706851 775.80366773 316.82536314 762.15590248 325 748 C325.37801758 747.35224609 325.75603516 746.70449219 326.14550781 746.03710938 C339.31488594 723.37658342 349.94855289 699.57416741 359 675 C359.33725098 674.0915332 359.67450195 673.18306641 360.02197266 672.24707031 C376.9985051 625.91842356 383.04147302 576.37474791 383.25 527.3125 C383.25562958 526.38446564 383.26125916 525.45643127 383.26705933 524.50027466 C383.31765292 512.89940726 382.76438752 501.58879912 381.26525879 490.08480835 C380.84478217 486.78006145 380.49837469 483.46836701 380.140625 480.15625 C378.30622916 464.08797589 375.72013387 448.54861078 371.71728516 432.8515625 C371.06063071 430.24103701 370.44804172 427.62568397 369.85546875 425 C355.7302362 363.46333625 324.53302579 305.10737909 284 257 C283.5678418 256.4829248 283.13568359 255.96584961 282.69042969 255.43310547 C270.14852546 240.44734183 256.93439937 225.52583129 242.07421875 212.796875 C239.79842282 210.8253757 237.59077333 208.78865605 235.375 206.75 C201.16157166 175.96310622 160.16667907 152.04315308 118 134 C116.80246094 133.48179687 115.60492187 132.96359375 114.37109375 132.4296875 C83.1797463 119.44216399 50.2986547 111.13898187 17 105.875 C16.00484375 105.71620361 15.0096875 105.55740723 13.984375 105.39379883 C-5.08717427 102.48874954 -23.90600973 101.5931744 -43.1875 101.625 C-44.4313446 101.62554382 -45.67518921 101.62608765 -46.95672607 101.62664795 C-144.17826998 101.82091387 -237.5111198 133.39633959 -354.15093994 229.97570801 Z " fill="#FEFEFE" transform="translate(966,387)"/>
<path d="M0 0 C21.43471492 3.67077687 35.79862381 15.4875581 50.73390198 30.45974731 C51.8865243 31.60790842 53.03957371 32.7556409 54.19300884 33.90298545 C57.33855955 37.03445251 60.4779243 40.17205578 63.61621892 43.31079245 C67.01080643 46.70372325 70.41109663 50.09093136 73.81057739 53.47895813 C81.23106122 60.87666169 88.64413888 68.28175702 96.05577207 75.68832636 C100.68834951 80.31763965 105.32255616 84.94531962 109.95710564 89.57265854 C122.80345172 102.39945034 135.64822471 115.22781142 148.48625278 128.06292915 C149.30660106 128.88308986 150.12694933 129.70325056 150.97215664 130.54826462 C152.63497221 132.21071395 154.29778651 133.87316455 155.96059955 135.53561641 C156.78595277 136.36078682 157.611306 137.18595724 158.46166992 138.03613281 C159.70121849 139.27541056 159.70121849 139.27541056 160.96580844 140.53972422 C174.3578992 153.92827283 187.76169379 167.30503723 201.17068876 180.67665376 C214.95646746 194.42431241 228.73282936 208.181348 242.49971241 221.94792926 C250.22192714 229.66956038 257.94801748 237.38721991 265.68441963 245.09463882 C272.27078529 251.65644157 278.84840415 258.22686006 285.41499133 264.80845805 C288.76173097 268.16234547 292.11228765 271.51215732 295.4739933 274.85104942 C298.55853933 277.91486355 301.63105479 280.99025325 304.69486653 284.0747975 C305.79804249 285.18144119 306.90535206 286.28398507 308.01744301 287.38166954 C323.70254615 302.87679268 334.00777823 320.75600179 334.375 343.1875 C334.32802558 361.68096778 327.66761941 378.30436367 314.62109375 391.44921875 C313.75613281 392.29097656 312.89117188 393.13273437 312 394 C311.39285156 394.60457031 310.78570313 395.20914062 310.16015625 395.83203125 C297.80229193 407.28345076 281.24662611 412.82172985 264.59570312 412.44897461 C253.92302042 411.95028356 244.30787713 410.00314542 234.6875 405.3125 C234.06601074 405.01021484 233.44452148 404.70792969 232.80419922 404.39648438 C222.12990331 398.81067225 213.68725689 389.9822236 205.26609802 381.54025269 C204.1134757 380.39209158 202.96042629 379.2443591 201.80699116 378.09701455 C198.66144045 374.96554749 195.5220757 371.82794422 192.38378108 368.68920755 C188.98919357 365.29627675 185.58890337 361.90906864 182.18942261 358.52104187 C174.76893878 351.12333831 167.35586112 343.71824298 159.94422793 336.31167364 C155.31165049 331.68236035 150.67744384 327.05468038 146.04289436 322.42734146 C133.19654828 309.60054966 120.35177529 296.77218858 107.51374722 283.93707085 C106.69339894 283.11691014 105.87305067 282.29674944 105.02784336 281.45173538 C103.36502779 279.78928605 101.70221349 278.12683545 100.03940045 276.46438359 C98.80137062 275.22662797 98.80137062 275.22662797 97.53833008 273.96386719 C96.29878151 272.72458944 96.29878151 272.72458944 95.03419156 271.46027578 C81.6421008 258.07172717 68.23830621 244.69496277 54.82931124 231.32334624 C41.04353254 217.57568759 27.26717064 203.818652 13.50028759 190.05207074 C5.77807286 182.33043962 -1.94801748 174.61278009 -9.68441963 166.90536118 C-16.27078529 160.34355843 -22.84840415 153.77313994 -29.41499133 147.19154195 C-32.76173097 143.83765453 -36.11228765 140.48784268 -39.4739933 137.14895058 C-42.55853933 134.08513645 -45.63105479 131.00974675 -48.69486653 127.9252025 C-49.79804249 126.81855881 -50.90535206 125.71601493 -52.01744301 124.61833046 C-62.0447211 114.71250407 -70.73070096 103.64881966 -75 90 C-75.29648438 89.09121094 -75.59296875 88.18242188 -75.8984375 87.24609375 C-78.17432031 79.40578188 -79.93545495 71.04559076 -78 63 C-74.55492842 58.47939388 -70.54213467 55.37303843 -66 52 C-64.56996325 50.78641439 -63.15105167 49.55943599 -61.75 48.3125 C-60.81414062 47.50232422 -60.81414062 47.50232422 -59.859375 46.67578125 C-57.12967826 44.21561339 -54.57882841 41.58902304 -52.00390625 38.96875 C-50.04943548 37.04856819 -48.02686061 35.27132691 -45.9375 33.5 C-42.54351143 30.58236071 -39.66200542 27.43482314 -36.7734375 24.0234375 C-34.97538083 21.97191028 -33.0842574 20.08480459 -31.125 18.1875 C-27.06472007 14.19845306 -23.52503525 9.86592919 -19.98046875 5.41796875 C-19.32691406 4.62003906 -18.67335938 3.82210938 -18 3 C-17.55785156 2.40703125 -17.11570312 1.8140625 -16.66015625 1.203125 C-12.42905593 -1.86317829 -5.05559575 -0.5049641 0 0 Z " fill="#225483" transform="translate(1341,1263)"/>
<path d="M0 0 C1.26231445 -0.00960754 2.52462891 -0.01921509 3.82519531 -0.02911377 C5.2024721 -0.03396501 6.57975102 -0.03824303 7.95703125 -0.04199219 C8.65550171 -0.04481956 9.35397217 -0.04764694 10.0736084 -0.05056 C13.77677791 -0.06553999 17.47990866 -0.07477436 21.18310547 -0.07910156 C24.9776831 -0.08455543 28.7718963 -0.10852067 32.56636047 -0.13707352 C35.50922615 -0.15586628 38.45200741 -0.16091445 41.39492798 -0.16243744 C42.79173758 -0.16543194 44.18854688 -0.17334967 45.58529663 -0.18662262 C62.31269029 -0.33411008 76.10403857 3.00607774 88.4453125 14.70800781 C97.91698882 24.70500399 102.93966466 35.85090635 102.88978577 49.57659912 C102.8910674 50.86191934 102.8910674 50.86191934 102.89237493 52.17320561 C102.89402417 55.04908532 102.88851743 57.9249069 102.88305664 60.80078125 C102.88277462 62.86045836 102.88293279 64.92013557 102.88349915 66.97981262 C102.88378655 72.57651348 102.87789896 78.17319299 102.87092519 83.76988888 C102.86468223 89.61687551 102.8640871 95.4638626 102.86289978 101.31085205 C102.85978925 112.38529654 102.8515796 123.45973119 102.84155029 134.53417134 C102.83038053 147.14103623 102.82487652 159.74790158 102.81985486 172.35477018 C102.80939677 198.29023111 102.79105472 224.22567854 102.76953125 250.16113281 C86.26953125 250.16113281 69.76953125 250.16113281 52.76953125 250.16113281 C52.76953125 217.16113281 52.76953125 184.16113281 52.76953125 150.16113281 C36.26953125 150.16113281 19.76953125 150.16113281 2.76953125 150.16113281 C2.76953125 183.16113281 2.76953125 216.16113281 2.76953125 250.16113281 C-13.73046875 250.16113281 -30.23046875 250.16113281 -47.23046875 250.16113281 C-47.27562807 223.32711997 -47.31246523 196.49313792 -47.33409309 169.65909672 C-47.34440252 157.19939373 -47.35845651 144.73971604 -47.38134766 132.2800293 C-47.4012917 121.41926969 -47.41418762 110.5585284 -47.41864574 99.69775099 C-47.42125138 93.94789736 -47.42736895 88.19809616 -47.44192886 82.44825935 C-47.45552874 77.03355367 -47.4596865 71.61892189 -47.45668411 66.20420074 C-47.4572332 64.21969386 -47.46119626 62.23518445 -47.4688797 60.25069237 C-47.47887859 57.53435304 -47.47641964 54.81829014 -47.47097778 52.10194397 C-47.47680347 51.32273325 -47.48262915 50.54352252 -47.48863137 49.74069935 C-47.41449249 35.9822899 -42.15987448 24.34070948 -32.6484375 14.41503906 C-23.46537909 5.85506377 -12.69343867 0.07810709 0 0 Z " fill="#37C5AA" transform="translate(727.23046875,779.8388671875)"/>
<path d="M0 0 C120.33412666 0 120.33412666 0 135.67578125 14.546875 C144.31531586 23.66557707 150.08306578 34.54354003 150.16113281 47.23046875 C150.17074036 48.4927832 150.1803479 49.75509766 150.19024658 51.05566406 C150.19509782 52.43294085 150.19937584 53.81021977 150.203125 55.1875 C150.20736607 56.23520569 150.20736607 56.23520569 150.21169281 57.30407715 C150.2266728 61.00724666 150.23590717 64.71037741 150.24023438 68.41357422 C150.24568824 72.20815185 150.26965349 76.00236505 150.29820633 79.79682922 C150.31699909 82.7396949 150.32204726 85.68247616 150.32357025 88.62539673 C150.32656475 90.02220633 150.33448248 91.41901563 150.34775543 92.81576538 C150.49511794 109.52898731 147.16866199 123.36968528 135.4375 135.6796875 C123.81894329 146.73965976 110.59303904 150.82585455 94.7265625 150.48828125 C93.00796021 150.48072815 93.00796021 150.48072815 91.25463867 150.47302246 C87.04449828 150.44719937 82.83471938 150.37739745 78.625 150.3125 C69.17875 150.209375 59.7325 150.10625 50 150 C50 183 50 216 50 250 C33.5 250 17 250 0 250 C0 167.5 0 85 0 0 Z " fill="#37C5AA" transform="translate(855,780)"/>
<path d="M0 0 C33 0 66 0 100 0 C100 16.5 100 33 100 50 C91.75 50 83.5 50 75 50 C75 99.5 75 149 75 200 C83.25 200 91.5 200 100 200 C100 216.5 100 233 100 250 C67 250 34 250 0 250 C0 233.5 0 217 0 200 C8.25 200 16.5 200 25 200 C25 150.5 25 101 25 50 C16.75 50 8.5 50 0 50 C0 33.5 0 17 0 0 Z " fill="#38C6AB" transform="translate(1030,780)"/>
<path d="M0 0 C16.5 0 33 0 50 0 C50 16.5 50 33 50 50 C33.5 50 17 50 0 50 C0 33.5 0 17 0 0 Z " fill="#192636" transform="translate(905,830)"/>
<path d="M0 0 C16.5 0 33 0 50 0 C50 16.5 50 33 50 50 C33.5 50 17 50 0 50 C0 33.5 0 17 0 0 Z " fill="#192636" transform="translate(730,830)"/>
</svg>
